<svg width="108" height="20" viewBox="0 0 108 20" fill="none" xmlns="http://www.w3.org/2000/svg">
<path d="M5.13727 6.136L0.977273 8.97V3.796L5.13727 0.935999H9.68727V19.5H5.13727V6.136ZM10.8548 16.38C10.8548 10.764 20.7348 10.322 20.7348 6.942C20.7348 5.382 19.8508 4.472 18.3168 4.472C16.7828 4.472 15.8468 5.486 15.8468 7.176H11.1928C11.1928 3.068 13.8448 0.624 18.3168 0.624C22.7628 0.624 25.3888 2.964 25.3888 6.942C25.3888 12.532 15.9508 13.624 15.9508 15.652H25.1548V19.5H10.8548V16.38Z" fill="#8238FD"/>
<path d="M26.6224 19.5V0.935999H34.8904C39.1544 0.935999 41.6764 2.782 41.6764 5.876C41.6764 7.826 40.6364 9.256 38.9204 9.724V9.776C40.9744 10.244 42.1964 11.804 42.1964 14.04C42.1964 17.472 39.6744 19.5 35.3844 19.5H26.6224ZM31.4064 15.834H35.1244C36.4244 15.834 37.2044 15.054 37.2044 13.702C37.2044 12.402 36.3464 11.596 34.8644 11.596H31.4064V15.834ZM31.4064 7.93H34.8644C36.0084 7.93 36.6844 7.306 36.6844 6.292C36.6844 5.252 35.9564 4.602 34.6824 4.602H31.4064V7.93ZM47.631 19.5H42.847V0.935999H50.933C55.379 0.935999 58.031 3.198 58.031 7.02C58.031 9.698 56.757 11.57 54.547 12.454L58.629 19.5H53.689L49.945 13.026H47.631V19.5ZM47.631 9.204H51.219C52.493 9.204 53.273 8.372 53.273 7.02C53.273 5.616 52.389 4.784 50.933 4.784H47.631V9.204ZM65.7041 0.935999H70.5401L77.3521 19.5H72.5421L71.3461 16.302H64.8981L63.7021 19.5H58.8921L65.7041 0.935999ZM66.1461 12.844H70.0981L68.1221 7.54L66.1461 12.844ZM89.126 0.935999H93.988L86.058 19.5H82.132L74.228 0.935999H79.064L84.056 12.792H84.108L89.126 0.935999ZM107.451 8.008V11.856H99.8849V15.652H107.997V19.5H95.1009V0.935999H107.997V4.784H99.8849V8.008H107.451Z" fill="#131313"/>
</svg>
