<svg width="1440" height="275" viewBox="0 0 1440 275" fill="none" xmlns="http://www.w3.org/2000/svg">
<path d="M1432.65 107.492V163.26H1330.85V218.274H1440V274.042H1266.48V5H1440V60.7678H1330.85V107.492H1432.65Z" fill="white" fill-opacity="0.2"/>
<path d="M1186.08 5H1251.51L1144.8 274.042H1091.98L985.625 5H1050.7L1117.87 176.825H1118.57L1186.08 5Z" fill="white" fill-opacity="0.2"/>
<path d="M870.932 5H936.003L1027.66 274.042H962.941L946.848 227.695H860.087L843.994 274.042H779.273L870.932 5ZM876.88 177.579H930.056L903.468 100.71L876.88 177.579Z" fill="white" fill-opacity="0.2"/>
<path d="M627.746 274.042H563.375V5H672.176C731.999 5 767.683 37.7824 767.683 93.1735C767.683 131.985 750.541 159.115 720.804 171.927L775.73 274.042H709.259L658.882 180.217H627.746V274.042ZM627.746 124.825H676.024C693.167 124.825 703.662 112.768 703.662 93.1735C703.662 72.8257 691.767 60.7678 672.176 60.7678H627.746V124.825Z" fill="white" fill-opacity="0.2"/>
<path d="M345.062 274.042V5H456.312C513.687 5 547.621 31.7535 547.621 76.5938C547.621 104.855 533.628 125.579 510.538 132.362V133.115C538.176 139.898 554.618 162.506 554.618 194.912C554.618 244.651 520.684 274.042 462.959 274.042H345.062ZM409.434 220.912H459.461C476.953 220.912 487.448 209.608 487.448 190.014C487.448 171.173 475.904 159.492 455.963 159.492H409.434V220.912ZM409.434 106.362H455.963C471.356 106.362 480.452 97.3184 480.452 82.6228C480.452 67.5504 470.656 58.1302 453.514 58.1302H409.434V106.362Z" fill="white" fill-opacity="0.2"/>
<path d="M132.906 228.347C132.906 146.956 265.846 140.55 265.846 91.5648C265.846 68.9562 253.952 55.7678 233.311 55.7678C212.67 55.7678 200.076 70.4634 200.076 94.956H137.454C137.454 35.4201 173.138 0 233.311 0C293.134 0 328.468 33.9129 328.468 91.5648C328.468 172.579 201.475 188.405 201.475 217.796H325.32V273.564H132.906V228.347Z" fill="white" fill-opacity="0.4"/>
<path d="M55.9748 80.3619L0 121.434V46.4491L55.9748 5H117.197V274.042H55.9748V80.3619Z" fill="white" fill-opacity="0.4"/>
</svg>
