<svg width="182" height="32" viewBox="0 0 182 32" fill="none" xmlns="http://www.w3.org/2000/svg">
<path d="M180.189 12.5227V19.0347H167.385V25.4587H181.113V31.9707H159.289V0.554688H181.113V7.06669H167.385V12.5227H180.189Z" fill="#131313"/>
<path d="M149.173 0.554688H157.401L143.981 31.9707H137.337L123.961 0.554688H132.145L140.593 20.6187H140.681L149.173 0.554688Z" fill="#131313"/>
<path d="M109.536 0.554688H117.72L129.248 31.9707H121.108L119.084 26.5587H108.172L106.148 31.9707H98.0078L109.536 0.554688ZM110.284 20.7067H116.972L113.628 11.7307L110.284 20.7067Z" fill="#131313"/>
<path d="M78.9554 31.9707H70.8594V0.554688H84.5434C92.0674 0.554688 96.5554 4.38269 96.5554 10.8507C96.5554 15.3827 94.3994 18.5507 90.6594 20.0467L97.5674 31.9707H89.2074L82.8714 21.0147H78.9554V31.9707ZM78.9554 14.5467H85.0274C87.1834 14.5467 88.5034 13.1387 88.5034 10.8507C88.5034 8.47469 87.0074 7.06669 84.5434 7.06669H78.9554V14.5467Z" fill="#131313"/>
<path d="M43.3984 31.9707V0.554688H57.3904C64.6064 0.554688 68.8744 3.67869 68.8744 8.91469C68.8744 12.2147 67.1144 14.6347 64.2104 15.4267V15.5147C67.6864 16.3067 69.7544 18.9467 69.7544 22.7307C69.7544 28.5387 65.4864 31.9707 58.2264 31.9707H43.3984ZM51.4944 25.7667H57.7864C59.9864 25.7667 61.3064 24.4467 61.3064 22.1587C61.3064 19.9587 59.8544 18.5947 57.3464 18.5947H51.4944V25.7667ZM51.4944 12.3907H57.3464C59.2824 12.3907 60.4264 11.3347 60.4264 9.61869C60.4264 7.85869 59.1944 6.75869 57.0384 6.75869H51.4944V12.3907Z" fill="#131313"/>
<path d="M16.7188 26.6874C16.7188 17.1834 33.4388 16.4354 33.4388 10.7154C33.4388 8.07544 31.9427 6.53544 29.3467 6.53544C26.7507 6.53544 25.1667 8.25144 25.1667 11.1114H17.2907C17.2907 4.15944 21.7787 0.0234375 29.3467 0.0234375C36.8707 0.0234375 41.3148 3.98344 41.3148 10.7154C41.3148 20.1754 25.3427 22.0234 25.3427 25.4554H40.9188V31.9674H16.7188V26.6874Z" fill="#8238FD"/>
<path d="M7.04 9.35469L0 14.1507V5.39469L7.04 0.554688H14.74V31.9707H7.04V9.35469Z" fill="#8238FD"/>
</svg>
