<svg width="16" height="17" viewBox="0 0 16 17" fill="none" xmlns="http://www.w3.org/2000/svg">
<path d="M2.66659 7.50684H13.3333M2.66659 7.50684C1.93021 7.50684 1.33325 6.90988 1.33325 6.1735V5.50684C1.33325 4.77046 1.93021 4.1735 2.66659 4.1735H13.3333C14.0696 4.1735 14.6666 4.77046 14.6666 5.50684V6.1735C14.6666 6.90988 14.0696 7.50684 13.3333 7.50684M2.66659 7.50684L2.66659 13.5068C2.66659 14.2432 3.26354 14.8402 3.99992 14.8402H11.9999C12.7363 14.8402 13.3333 14.2432 13.3333 13.5068V7.50684M7.99992 4.1735H10.6666C11.403 4.1735 11.9999 3.57655 11.9999 2.84017C11.9999 2.10379 11.403 1.50684 10.6666 1.50684C9.19383 1.50684 7.99992 2.70074 7.99992 4.1735ZM7.99992 4.1735H5.33325C4.59687 4.1735 3.99992 3.57655 3.99992 2.84017C3.99992 2.10379 4.59687 1.50684 5.33325 1.50684C6.80601 1.50684 7.99992 2.70074 7.99992 4.1735ZM7.99992 4.1735V14.8402" stroke="#8238FD" stroke-linecap="round"/>
</svg>
