<svg width="16" height="17" viewBox="0 0 16 17" fill="none" xmlns="http://www.w3.org/2000/svg">
<path d="M3.33325 5.67692C4.1771 5.80761 5.11844 6.02487 5.99992 6.36575M3.33325 8.34359C3.75958 8.40961 4.21078 8.49774 4.66659 8.61273M7.99992 4.20941V13.7088M2.6628 2.18134C4.14172 2.34846 6.12867 2.79804 7.54447 3.79013C7.81657 3.9808 8.18326 3.9808 8.45537 3.79013C9.87117 2.79804 11.8581 2.34846 13.337 2.18134C14.069 2.09863 14.6666 2.70984 14.6666 3.46395V10.9738C14.6666 11.7279 14.069 12.3393 13.337 12.422C11.8581 12.5892 9.87117 13.0387 8.45537 14.0308C8.18326 14.2215 7.81657 14.2215 7.54447 14.0308C6.12867 13.0387 4.14172 12.5892 2.6628 12.422C1.93087 12.3393 1.33325 11.7279 1.33325 10.9738V3.46395C1.33325 2.70984 1.93087 2.09863 2.6628 2.18134Z" stroke="#8238FD" stroke-linecap="round"/>
</svg>
