<svg width="60" height="19" viewBox="0 0 60 19" fill="none" xmlns="http://www.w3.org/2000/svg">
<path d="M4.49978 12.5397L2.31845 13.9156C2.22209 13.9798 2.12134 14.0073 2.01622 13.9982C1.91109 13.989 1.81911 13.9523 1.74027 13.8881C1.66142 13.8239 1.6001 13.7437 1.5563 13.6476C1.5125 13.5515 1.50374 13.4436 1.53002 13.324L2.1082 10.7236L0.176543 8.97625C0.0889399 8.8937 0.0342753 8.79959 0.0125496 8.69392C-0.00917605 8.58826 -0.00269342 8.48516 0.0319976 8.38463C0.0666886 8.2841 0.119251 8.20155 0.189684 8.13697C0.260117 8.0724 0.356481 8.03112 0.478775 8.01314L3.02804 7.77925L4.01358 5.33021C4.05738 5.22014 4.12536 5.13759 4.21752 5.08255C4.30968 5.02752 4.40376 5 4.49978 5C4.59579 5 4.68988 5.02752 4.78203 5.08255C4.87419 5.13759 4.94217 5.22014 4.98598 5.33021L5.97152 7.77925L8.52078 8.01314C8.64342 8.03149 8.73979 8.07277 8.80987 8.13697C8.87995 8.20118 8.93251 8.28373 8.96755 8.38463C9.0026 8.48553 9.00925 8.58881 8.98753 8.69447C8.9658 8.80014 8.91096 8.89407 8.82301 8.97625L6.89135 10.7236L7.46953 13.324C7.49582 13.4432 7.48706 13.5511 7.44325 13.6476C7.39945 13.7441 7.33813 13.8242 7.25929 13.8881C7.18044 13.9519 7.08846 13.9886 6.98334 13.9982C6.87821 14.0077 6.77747 13.9802 6.6811 13.9156L4.49978 12.5397Z" fill="#B5B5B5"/>
<path d="M17.4998 12.5397L15.3184 13.9156C15.2221 13.9798 15.1213 14.0073 15.0162 13.9982C14.9111 13.989 14.8191 13.9523 14.7403 13.8881C14.6614 13.8239 14.6001 13.7437 14.5563 13.6476C14.5125 13.5515 14.5037 13.4436 14.53 13.324L15.1082 10.7236L13.1765 8.97625C13.0889 8.8937 13.0343 8.79959 13.0125 8.69392C12.9908 8.58826 12.9973 8.48516 13.032 8.38463C13.0667 8.2841 13.1193 8.20155 13.1897 8.13697C13.2601 8.0724 13.3565 8.03112 13.4788 8.01314L16.028 7.77925L17.0136 5.33021C17.0574 5.22014 17.1254 5.13759 17.2175 5.08255C17.3097 5.02752 17.4038 5 17.4998 5C17.5958 5 17.6899 5.02752 17.782 5.08255C17.8742 5.13759 17.9422 5.22014 17.986 5.33021L18.9715 7.77925L21.5208 8.01314C21.6434 8.03149 21.7398 8.07277 21.8099 8.13697C21.88 8.20118 21.9325 8.28373 21.9676 8.38463C22.0026 8.48553 22.0093 8.58881 21.9875 8.69447C21.9658 8.80014 21.911 8.89407 21.823 8.97625L19.8914 10.7236L20.4695 13.324C20.4958 13.4432 20.4871 13.5511 20.4433 13.6476C20.3995 13.7441 20.3381 13.8242 20.2593 13.8881C20.1804 13.9519 20.0885 13.9886 19.9833 13.9982C19.8782 14.0077 19.7775 13.9802 19.6811 13.9156L17.4998 12.5397Z" fill="#B5B5B5"/>
<path d="M30.4998 12.5397L28.3184 13.9156C28.2221 13.9798 28.1213 14.0073 28.0162 13.9982C27.9111 13.989 27.8191 13.9523 27.7403 13.8881C27.6614 13.8239 27.6001 13.7437 27.5563 13.6476C27.5125 13.5515 27.5037 13.4436 27.53 13.324L28.1082 10.7236L26.1765 8.97625C26.0889 8.8937 26.0343 8.79959 26.0125 8.69392C25.9908 8.58826 25.9973 8.48516 26.032 8.38463C26.0667 8.2841 26.1193 8.20155 26.1897 8.13697C26.2601 8.0724 26.3565 8.03112 26.4788 8.01314L29.028 7.77925L30.0136 5.33021C30.0574 5.22014 30.1254 5.13759 30.2175 5.08255C30.3097 5.02752 30.4038 5 30.4998 5C30.5958 5 30.6899 5.02752 30.782 5.08255C30.8742 5.13759 30.9422 5.22014 30.986 5.33021L31.9715 7.77925L34.5208 8.01314C34.6434 8.03149 34.7398 8.07277 34.8099 8.13697C34.88 8.20118 34.9325 8.28373 34.9676 8.38463C35.0026 8.48553 35.0093 8.58881 34.9875 8.69447C34.9658 8.80014 34.911 8.89407 34.823 8.97625L32.8914 10.7236L33.4695 13.324C33.4958 13.4432 33.4871 13.5511 33.4433 13.6476C33.3995 13.7441 33.3381 13.8242 33.2593 13.8881C33.1804 13.9519 33.0885 13.9886 32.9833 13.9982C32.8782 14.0077 32.7775 13.9802 32.6811 13.9156L30.4998 12.5397Z" fill="#B5B5B5"/>
<path d="M42.9998 12.0806L41.0608 13.2486C40.9752 13.3031 40.8856 13.3265 40.7922 13.3187C40.6987 13.3109 40.617 13.2798 40.5469 13.2253C40.4768 13.1708 40.4223 13.1027 40.3834 13.0211C40.3444 12.9395 40.3367 12.8479 40.36 12.7464L40.874 10.5388L39.1569 9.05534C39.0791 8.98526 39.0305 8.90536 39.0112 8.81566C38.9918 8.72595 38.9976 8.63843 39.0284 8.55308C39.0593 8.46774 39.106 8.39765 39.1686 8.34283C39.2312 8.28801 39.3169 8.25297 39.4256 8.23771L41.6916 8.03914L42.5676 5.96002C42.6066 5.86658 42.667 5.79649 42.7489 5.74977C42.8308 5.70305 42.9145 5.67969 42.9998 5.67969C43.0851 5.67969 43.1688 5.70305 43.2507 5.74977C43.3326 5.79649 43.393 5.86658 43.432 5.96002L44.308 8.03914L46.574 8.23771C46.683 8.25328 46.7687 8.28832 46.831 8.34283C46.8933 8.39734 46.94 8.46743 46.9712 8.55308C47.0023 8.63874 47.0082 8.72642 46.9889 8.81613C46.9696 8.90583 46.9209 8.98557 46.8427 9.05534L45.1256 10.5388L45.6396 12.7464C45.6629 12.8476 45.6552 12.9392 45.6162 13.0211C45.5773 13.103 45.5228 13.1711 45.4527 13.2253C45.3826 13.2795 45.3009 13.3106 45.2074 13.3187C45.114 13.3268 45.0244 13.3034 44.9388 13.2486L42.9998 12.0806Z" fill="#B5B5B5"/>
<path d="M55.4998 12.5397L53.3184 13.9156C53.2221 13.9798 53.1213 14.0073 53.0162 13.9982C52.9111 13.989 52.8191 13.9523 52.7403 13.8881C52.6614 13.8239 52.6001 13.7437 52.5563 13.6476C52.5125 13.5515 52.5037 13.4436 52.53 13.324L53.1082 10.7236L51.1765 8.97625C51.0889 8.8937 51.0343 8.79959 51.0125 8.69392C50.9908 8.58826 50.9973 8.48516 51.032 8.38463C51.0667 8.2841 51.1193 8.20155 51.1897 8.13697C51.2601 8.0724 51.3565 8.03112 51.4788 8.01314L54.028 7.77925L55.0136 5.33021C55.0574 5.22014 55.1254 5.13759 55.2175 5.08255C55.3097 5.02752 55.4038 5 55.4998 5C55.5958 5 55.6899 5.02752 55.782 5.08255C55.8742 5.13759 55.9422 5.22014 55.986 5.33021L56.9715 7.77925L59.5208 8.01314C59.6434 8.03149 59.7398 8.07277 59.8099 8.13697C59.88 8.20118 59.9325 8.28373 59.9676 8.38463C60.0026 8.48553 60.0093 8.58881 59.9875 8.69447C59.9658 8.80014 59.911 8.89407 59.823 8.97625L57.8914 10.7236L58.4695 13.324C58.4958 13.4432 58.4871 13.5511 58.4433 13.6476C58.3995 13.7441 58.3381 13.8242 58.2593 13.8881C58.1804 13.9519 58.0885 13.9886 57.9833 13.9982C57.8782 14.0077 57.7775 13.9802 57.6811 13.9156L55.4998 12.5397Z" fill="#B5B5B5"/>
</svg>
