<svg width="24" height="24" viewBox="0 0 24 24" fill="none" xmlns="http://www.w3.org/2000/svg">
<path fill-rule="evenodd" clip-rule="evenodd" d="M10.332 1.20513C10.791 0.81028 11.3765 0.59314 11.982 0.59314C12.5875 0.59314 13.1729 0.81028 13.632 1.20513C13.9691 1.49656 14.3023 1.78685 14.6314 2.07599C15.0691 1.98685 15.5097 1.90113 15.9531 1.81885C16.548 1.70642 17.1634 1.81099 17.6878 2.11357C18.2121 2.41616 18.6106 2.8967 18.8108 3.46799C18.9594 3.88856 19.1023 4.30628 19.2394 4.72113C19.6634 4.86399 20.0886 5.0097 20.5148 5.15828C21.6977 5.57313 22.3971 6.78685 22.164 8.01599C22.0794 8.46399 21.9926 8.90742 21.9034 9.34628C22.2006 9.68228 22.4977 10.0228 22.7948 10.368C23.1897 10.827 23.4068 11.4125 23.4068 12.018C23.4068 12.6235 23.1897 13.2089 22.7948 13.668C22.5 14.0108 22.2051 14.3491 21.9103 14.6828C21.9971 15.1126 22.0817 15.5463 22.164 15.984C22.2764 16.5788 22.1719 17.1943 21.8693 17.7186C21.5667 18.243 21.0861 18.6414 20.5148 18.8417C20.0886 18.9903 19.664 19.136 19.2411 19.2788C19.1006 19.6948 18.9577 20.1126 18.8126 20.532C18.6126 21.1039 18.214 21.5851 17.6892 21.8881C17.1645 22.191 16.5485 22.2956 15.9531 22.1828C15.5217 22.1015 15.0908 22.0169 14.6606 21.9291C14.3312 22.2201 13.9998 22.5087 13.6663 22.7948L13.1091 22.1451L13.668 22.7966C13.2087 23.1912 12.6232 23.408 12.0177 23.4077C11.4122 23.4074 10.8268 23.1899 10.368 22.7948C10.0308 22.5046 9.69771 22.2143 9.36856 21.924C8.93085 22.0131 8.49028 22.0994 8.04685 22.1828C7.45178 22.2952 6.83617 22.1904 6.3118 21.8875C5.78743 21.5845 5.3891 21.1036 5.18913 20.532C5.04056 20.1126 4.8977 19.6948 4.76056 19.2788C4.33438 19.1362 3.90923 18.9905 3.48513 18.8417C2.91385 18.6414 2.4333 18.243 2.13071 17.7186C1.82813 17.1943 1.72356 16.5788 1.83599 15.984C1.92056 15.5371 2.00742 15.0937 2.09656 14.6537C1.79693 14.3153 1.49978 13.9747 1.20513 13.632C0.81028 13.1729 0.59314 12.5875 0.59314 11.982C0.59314 11.3765 0.81028 10.791 1.20513 10.332C1.49999 9.98913 1.79485 9.65085 2.0897 9.31713C2.00285 8.88742 1.91828 8.45371 1.83599 8.01599C1.72356 7.42114 1.82813 6.8057 2.13071 6.28137C2.4333 5.75703 2.91385 5.35856 3.48513 5.15828C3.91142 5.0097 4.33599 4.86399 4.75885 4.72113C4.89828 4.30628 5.04113 3.88856 5.18742 3.46799C5.38742 2.89604 5.78602 2.41485 6.31076 2.1119C6.8355 1.80895 7.45152 1.70435 8.04685 1.81713C8.48113 1.89942 8.91199 1.98399 9.33942 2.07085C9.66628 1.7817 9.99599 1.49313 10.332 1.20513ZM16.2943 9.52456C16.5468 9.29542 16.698 8.97532 16.7146 8.6347C16.7311 8.29408 16.6117 7.96084 16.3826 7.70828C16.2691 7.58322 16.1321 7.48174 15.9794 7.40962C15.8268 7.3375 15.6614 7.29617 15.4927 7.28797C15.1521 7.27141 14.8188 7.39084 14.5663 7.61999C13.3063 8.76342 12.3446 9.80399 11.532 11.0726C10.9999 11.9179 10.5428 12.8082 10.1657 13.7331L8.84399 12.3703C8.72648 12.2489 8.58621 12.1519 8.43121 12.0848C8.2762 12.0177 8.10949 11.9817 7.9406 11.979C7.7717 11.9763 7.60393 12.0069 7.44685 12.069C7.28977 12.1312 7.14647 12.2236 7.02513 12.3411C6.90379 12.4586 6.80678 12.5989 6.73965 12.7539C6.67252 12.9089 6.63657 13.0756 6.63386 13.2445C6.63116 13.4134 6.66174 13.5812 6.72388 13.7383C6.78601 13.8954 6.87848 14.0386 6.99599 14.16L9.72685 16.9748C9.8795 17.1325 10.07 17.2484 10.2801 17.3116C10.4902 17.3748 10.713 17.3832 10.9273 17.3359C11.1416 17.2887 11.3402 17.1874 11.5043 17.0416C11.6683 16.8959 11.7924 16.7106 11.8646 16.5034C12.492 14.7034 13.0406 13.4811 13.6954 12.4594C14.3434 11.448 15.1303 10.5788 16.2926 9.52456" fill="black"/>
</svg>
