<?xml version="1.0" encoding="UTF-8"?>
<svg xmlns="http://www.w3.org/2000/svg" xmlns:xlink="http://www.w3.org/1999/xlink" width="32px" height="32px" viewBox="0 0 32 32" version="1.1">
<g id="surface1">
<rect x="0" y="0" width="32" height="32" style="fill:rgb(50.980395%,21.960784%,99.215686%);fill-opacity:1;stroke:none;"/>
<path style=" stroke:none;fill-rule:nonzero;fill:rgb(100%,100%,100%);fill-opacity:0.2;" d="M 27.980469 15.550781 L 27.980469 16.484375 L 26.277344 16.484375 L 26.277344 17.402344 L 28.105469 17.402344 L 28.105469 18.335938 L 25.199219 18.335938 L 25.199219 13.832031 L 28.105469 13.832031 L 28.105469 14.765625 L 26.277344 14.765625 L 26.277344 15.550781 Z M 27.980469 15.550781 "/>
<path style=" stroke:none;fill-rule:nonzero;fill:rgb(100%,100%,100%);fill-opacity:0.2;" d="M 23.855469 13.832031 L 24.949219 13.832031 L 23.164062 18.335938 L 22.28125 18.335938 L 20.5 13.832031 L 21.589844 13.832031 L 22.710938 16.710938 L 22.726562 16.710938 Z M 23.855469 13.832031 "/>
<path style=" stroke:none;fill-rule:nonzero;fill:rgb(100%,100%,100%);fill-opacity:0.2;" d="M 18.578125 13.832031 L 19.667969 13.832031 L 21.203125 18.335938 L 20.121094 18.335938 L 19.851562 17.5625 L 18.398438 17.5625 L 18.128906 18.335938 L 17.042969 18.335938 Z M 18.679688 16.722656 L 19.570312 16.722656 L 19.125 15.4375 Z M 18.679688 16.722656 "/>
<path style=" stroke:none;fill-rule:nonzero;fill:rgb(100%,100%,100%);fill-opacity:0.2;" d="M 14.507812 18.335938 L 13.429688 18.335938 L 13.429688 13.832031 L 15.253906 13.832031 C 16.253906 13.832031 16.851562 14.382812 16.851562 15.308594 C 16.851562 15.960938 16.5625 16.414062 16.066406 16.628906 L 16.984375 18.335938 L 15.871094 18.335938 L 15.03125 16.765625 L 14.507812 16.765625 Z M 14.507812 15.839844 L 15.316406 15.839844 C 15.601562 15.839844 15.777344 15.636719 15.777344 15.308594 C 15.777344 14.96875 15.582031 14.765625 15.253906 14.765625 L 14.507812 14.765625 Z M 14.507812 15.839844 "/>
<path style=" stroke:none;fill-rule:nonzero;fill:rgb(100%,100%,100%);fill-opacity:0.2;" d="M 9.777344 18.335938 L 9.777344 13.832031 L 11.636719 13.832031 C 12.597656 13.832031 13.167969 14.28125 13.167969 15.03125 C 13.167969 15.503906 12.933594 15.851562 12.546875 15.964844 L 12.546875 15.976562 C 13.007812 16.09375 13.285156 16.46875 13.285156 17.011719 C 13.285156 17.84375 12.714844 18.335938 11.75 18.335938 Z M 10.855469 17.449219 L 11.691406 17.449219 C 11.984375 17.449219 12.160156 17.257812 12.160156 16.929688 C 12.160156 16.617188 11.964844 16.417969 11.632812 16.417969 L 10.855469 16.417969 Z M 10.855469 15.53125 L 11.632812 15.53125 C 11.890625 15.53125 12.042969 15.378906 12.042969 15.132812 C 12.042969 14.882812 11.878906 14.722656 11.59375 14.722656 L 10.855469 14.722656 Z M 10.855469 15.53125 "/>
<path style=" stroke:none;fill-rule:nonzero;fill:rgb(100%,100%,100%);fill-opacity:0.4;" d="M 6.226562 17.574219 C 6.226562 16.210938 8.449219 16.101562 8.449219 15.28125 C 8.449219 14.90625 8.25 14.683594 7.90625 14.683594 C 7.558594 14.683594 7.347656 14.929688 7.347656 15.339844 L 6.300781 15.339844 C 6.300781 14.34375 6.898438 13.75 7.90625 13.75 C 8.90625 13.75 9.5 14.316406 9.5 15.28125 C 9.5 16.640625 7.371094 16.902344 7.371094 17.394531 L 9.445312 17.394531 L 9.445312 18.328125 L 6.226562 18.328125 Z M 6.226562 17.574219 "/>
<path style=" stroke:none;fill-rule:nonzero;fill:rgb(100%,100%,100%);fill-opacity:0.4;" d="M 4.9375 15.09375 L 4 15.78125 L 4 14.527344 L 4.9375 13.832031 L 5.960938 13.832031 L 5.960938 18.335938 L 4.9375 18.335938 Z M 4.9375 15.09375 "/>
</g>
</svg>
