<svg width="100" height="100" viewBox="0 0 100 100" fill="none" xmlns="http://www.w3.org/2000/svg">
<circle cx="50" cy="50" r="50" fill="#8238FD"/>
<path d="M44.6959 37.9854C45.7922 34.7771 50.2252 34.6799 51.525 37.6939L51.635 37.9872L53.1145 42.3139C53.4536 43.3062 54.0015 44.2142 54.7213 44.9767C55.4411 45.7392 56.3161 46.3385 57.2872 46.7341L57.685 46.8826L62.0117 48.3602C65.22 49.4566 65.3172 53.8896 62.305 55.1894L62.0117 55.2994L57.685 56.7789C56.6924 57.1177 55.7841 57.6655 55.0212 58.3854C54.2584 59.1052 53.6588 59.9803 53.263 60.9516L53.1145 61.3476L51.6369 65.6761C50.5405 68.8844 46.1075 68.9816 44.8095 65.9694L44.6959 65.6761L43.2182 61.3494C42.8794 60.3568 42.3316 59.4484 41.6117 58.6856C40.8919 57.9228 40.0168 57.3232 39.0455 56.9274L38.6495 56.7789L34.3229 55.3012C31.1127 54.2049 31.0155 49.7719 34.0295 48.4739L34.3229 48.3602L38.6495 46.8826C39.6418 46.5435 40.5498 45.9956 41.3123 45.2758C42.0748 44.556 42.6741 43.681 43.0697 42.7099L43.2182 42.3139L44.6959 37.9854ZM62.833 31.6641C63.176 31.6641 63.5121 31.7603 63.8031 31.9418C64.0942 32.1232 64.3285 32.3827 64.4794 32.6907L64.5674 32.9052L65.209 34.7862L67.0919 35.4279C67.4356 35.5447 67.7369 35.7609 67.9576 36.0491C68.1783 36.3373 68.3085 36.6845 68.3317 37.0468C68.3549 37.409 68.27 37.77 68.0878 38.084C67.9056 38.398 67.6342 38.6508 67.3082 38.8104L67.0919 38.8984L65.2109 39.5401L64.5692 41.4229C64.4522 41.7665 64.2359 42.0677 63.9476 42.2882C63.6593 42.5088 63.312 42.6387 62.9497 42.6617C62.5875 42.6847 62.2265 42.5996 61.9127 42.4173C61.5988 42.2349 61.3462 41.9635 61.1867 41.6374L61.0987 41.4229L60.457 39.5419L58.5742 38.9002C58.2305 38.7835 57.9292 38.5673 57.7084 38.2791C57.4877 37.9909 57.3575 37.6436 57.3344 37.2814C57.3112 36.9191 57.3961 36.5581 57.5783 36.2441C57.7605 35.9301 58.0318 35.6773 58.3579 35.5177L58.5742 35.4297L60.4552 34.7881L61.0969 32.9052C61.2205 32.543 61.4544 32.2286 61.7657 32.006C62.0771 31.7834 62.4503 31.6638 62.833 31.6641Z" fill="white"/>
</svg>
