<svg width="100" height="100" viewBox="0 0 100 100" fill="none" xmlns="http://www.w3.org/2000/svg">
<circle cx="50" cy="50" r="50" fill="#8238FD"/>
<g clip-path="url(#clip0_1294_1023)">
<path d="M65.5236 42.1076L65.9746 41.07C66.7675 39.2343 68.2197 37.7625 70.0446 36.945L71.4361 36.3235C71.6049 36.2458 71.7479 36.1214 71.8481 35.9649C71.9484 35.8085 72.0017 35.6266 72.0017 35.4407C72.0017 35.2549 71.9484 35.073 71.8481 34.9165C71.7479 34.7601 71.6049 34.6356 71.4361 34.558L70.1216 33.9731C68.2508 33.1323 66.7738 31.6061 65.9947 29.7088L65.5291 28.5886C65.4609 28.4151 65.3421 28.2662 65.1881 28.1612C65.0341 28.0562 64.852 28 64.6656 28C64.4792 28 64.2971 28.0562 64.143 28.1612C63.989 28.2662 63.8702 28.4151 63.8021 28.5886L63.3382 29.707C62.56 31.6046 61.0836 33.1315 59.2132 33.9731L57.8969 34.5598C57.7286 34.6377 57.5861 34.7621 57.4862 34.9184C57.3864 35.0746 57.3333 35.2562 57.3333 35.4416C57.3333 35.6271 57.3864 35.8087 57.4862 35.9649C57.5861 36.1212 57.7286 36.2456 57.8969 36.3235L59.2902 36.9431C61.1147 37.7615 62.5663 39.2339 63.3584 41.07L63.8094 42.1076C64.1394 42.8666 65.1917 42.8666 65.5236 42.1076ZM54.3751 37.7901C54.8774 38.5846 55.5643 39.1719 56.4357 39.552L57.4716 40.0048C58.1682 40.3079 58.7329 40.7345 59.1656 41.2845V46.3353C59.1656 48.7665 58.1998 51.098 56.4807 52.8171C54.7616 54.5362 52.43 55.502 49.9989 55.502C47.5677 55.502 45.2362 54.5362 43.5171 52.8171C41.798 51.098 40.8322 48.7665 40.8322 46.3353V39.002C40.8322 37.3004 41.3058 35.6324 42.2001 34.1847C43.0943 32.7371 44.3738 31.5668 45.8953 30.8051C47.4169 30.0434 49.1204 29.7202 50.8153 29.8717C52.5101 30.0233 54.1293 30.6436 55.4916 31.6631C55.0516 31.9931 54.6788 32.3989 54.3732 32.8805C53.9063 33.6136 53.6612 34.4661 53.6674 35.3353C53.6674 36.2226 53.9039 37.0409 54.3769 37.7901M33.6016 48.1686H37.2957C37.7399 51.2207 39.2682 54.0109 41.6008 56.0286C43.9335 58.0464 46.9146 59.1568 49.9989 59.1568C53.0831 59.1568 56.0643 58.0464 58.397 56.0286C60.7296 54.0109 62.2579 51.2207 62.7021 48.1686H66.3981C65.9812 51.888 64.3129 55.3552 61.6666 58.0018C59.0204 60.6484 55.5533 62.3172 51.8341 62.7345V70.1686H48.1674V62.7345C44.4478 62.3176 40.9803 60.6489 38.3337 58.0023C35.6871 55.3557 34.0185 51.8882 33.6016 48.1686Z" fill="white"/>
</g>
<defs>
<clipPath id="clip0_1294_1023">
<rect width="44" height="44" fill="white" transform="translate(28 28)"/>
</clipPath>
</defs>
</svg>
