<svg width="100" height="100" viewBox="0 0 100 100" fill="none" xmlns="http://www.w3.org/2000/svg">
<circle cx="50" cy="50" r="50" fill="#8238FD"/>
<path d="M65.9722 41.07L65.5212 42.1076C65.4507 42.2766 65.3318 42.421 65.1794 42.5225C65.0271 42.624 64.8481 42.6782 64.665 42.6782C64.4819 42.6782 64.3029 42.624 64.1506 42.5225C63.9982 42.421 63.8793 42.2766 63.8088 42.1076L63.3578 41.07C62.5649 39.2343 61.1127 37.7625 59.2878 36.945L57.8963 36.3235C57.7275 36.2458 57.5845 36.1214 57.4843 35.9649C57.384 35.8085 57.3307 35.6266 57.3307 35.4407C57.3307 35.2549 57.384 35.073 57.4843 34.9165C57.5845 34.7601 57.7275 34.6356 57.8963 34.558L59.2108 33.9731C61.0816 33.1323 62.5586 31.6061 63.3377 29.7088L63.8033 28.5886C63.8715 28.4151 63.9903 28.2662 64.1443 28.1612C64.2983 28.0562 64.4804 28 64.6668 28C64.8533 28 65.0353 28.0562 65.1894 28.1612C65.3434 28.2662 65.4622 28.4151 65.5303 28.5886L65.9942 29.707C66.7724 31.6046 68.2488 33.1315 70.1192 33.9731L71.4355 34.5598C71.6038 34.6377 71.7463 34.7621 71.8462 34.9184C71.9461 35.0746 71.9991 35.2562 71.9991 35.4416C71.9991 35.6271 71.9461 35.8087 71.8462 35.9649C71.7463 36.1212 71.6038 36.2456 71.4355 36.3235L70.0422 36.9431C68.2177 37.7615 66.7661 39.2339 65.974 41.07M44.4983 31.6686C48.0599 31.6681 51.5 32.9635 54.1766 35.3132C56.8531 37.6629 58.5832 40.9062 59.044 44.4378L63.169 50.926C63.4403 51.3531 63.3853 51.9893 62.7565 52.2607L59.165 53.797V59.1687C59.165 60.1411 58.7787 61.0737 58.0911 61.7614C57.4034 62.449 56.4708 62.8353 55.4983 62.8353H51.8335L51.8317 68.3353H35.3317V61.563C35.3317 59.3996 34.5323 57.3518 33.051 55.5038C31.3236 53.3469 30.2406 50.7459 29.9269 48.0004C29.6131 45.2549 30.0814 42.4767 31.2778 39.9857C32.4741 37.4947 34.3498 35.3924 36.6888 33.9209C39.0279 32.4495 41.735 31.6687 44.4983 31.6686ZM66.7807 61.189L63.7282 59.154C65.5387 56.4455 66.5029 53.2599 66.4983 50.002C66.4971 49.0645 66.4213 48.1479 66.271 47.252L69.8332 46.3353C70.0532 47.527 70.1638 48.7492 70.165 50.002C70.165 54.1416 68.9183 57.988 66.7807 61.189Z" fill="white"/>
</svg>
