<svg width="142" height="32" viewBox="0 0 142 32" fill="none" xmlns="http://www.w3.org/2000/svg">
<path d="M132.116 25.4943C132.116 23.4204 133.741 21.7378 135.74 21.7378C137.741 21.7378 139.363 23.4204 139.363 25.4943C139.363 27.5683 137.741 29.2498 135.74 29.2498C133.741 29.2498 132.116 27.5683 132.116 25.4943Z" fill="#86BC25"/>
<path d="M16.5459 15.5461C16.5459 13.1668 16.1024 11.4016 15.2153 10.2515C14.3272 9.10263 12.9818 8.5287 11.173 8.5287H9.24897V23.0788H10.7211C12.7301 23.0788 14.2023 22.4614 15.1398 21.2223C16.0761 19.9853 16.5459 18.0929 16.5459 15.5461ZM23.4076 15.2983C23.4076 19.6331 22.2836 22.9733 20.0354 25.3179C17.7873 27.6636 14.627 28.8364 10.5533 28.8364H2.6377V2.86133H11.1059C15.0338 2.86133 18.0662 3.92763 20.2032 6.05916C22.3391 8.19178 23.4076 11.2701 23.4076 15.2983Z" fill="#0F0B0B"/>
<path d="M45.3337 28.8357H51.6325V2.75195H45.3337V28.8357Z" fill="#0F0B0B"/>
<path d="M60.481 19.1068C60.481 20.7698 60.6906 22.0383 61.1091 22.91C61.5285 23.7828 62.2309 24.2187 63.2187 24.2187C64.1959 24.2187 64.8869 23.7828 65.2896 22.91C65.6922 22.0383 65.8925 20.7698 65.8925 19.1068C65.8925 17.4524 65.689 16.2045 65.2812 15.3622C64.8723 14.5176 64.1751 14.0947 63.1863 14.0947C62.2196 14.0947 61.5285 14.5154 61.1091 15.3524C60.6906 16.1904 60.481 17.4415 60.481 19.1068ZM72.3035 19.1068C72.3035 22.2752 71.5023 24.747 69.8959 26.5187C68.2906 28.2916 66.0435 29.1785 63.1548 29.1785C60.3845 29.1785 58.1793 28.272 56.5425 26.4589C54.9036 24.6459 54.0847 22.1959 54.0847 19.1068C54.0847 15.948 54.8869 13.4937 56.4933 11.7437C58.0997 9.99365 60.3519 9.11865 63.2523 9.11865C65.0443 9.11865 66.6298 9.52411 68.0034 10.3339C69.378 11.1437 70.4392 12.3035 71.1847 13.8143C71.9313 15.323 72.3035 17.0883 72.3035 19.1068Z" fill="#0F0B0B"/>
<path d="M74.8049 28.836H81.1047V18.8534V9.46094H74.8049V28.836Z" fill="#0F0B0B"/>
<path d="M74.8047 7.11729H81.1045V2.75098H74.8047V7.11729Z" fill="#0F0B0B"/>
<path d="M93.8676 23.8941C94.718 23.8941 95.7308 23.6702 96.9125 23.2257V28.1007C96.0632 28.4876 95.2559 28.7648 94.4883 28.9289C93.7208 29.0952 92.82 29.1779 91.7893 29.1779C89.6743 29.1779 88.1497 28.6268 87.2133 27.5268C86.2812 26.4268 85.8135 24.7376 85.8135 22.4583V14.4713H83.6074V9.46257H85.8135V4.51472L92.1616 3.37012V9.46257H96.1808V14.4713H92.1616V22.0126C92.1616 23.267 92.7309 23.8941 93.8676 23.8941Z" fill="#0F0B0B"/>
<path d="M108.448 23.8941C109.298 23.8941 110.311 23.6702 111.493 23.2257V28.1007C110.645 28.4876 109.836 28.7648 109.068 28.9289C108.3 29.0952 107.402 29.1779 106.369 29.1779C104.255 29.1779 102.73 28.6268 101.796 27.5268C100.861 26.4268 100.394 24.7376 100.394 22.4583V14.4713H98.1865V9.46257H100.394V4.43972L106.741 3.37012V9.46257H110.762V14.4713H106.741V22.0126C106.741 23.267 107.31 23.8941 108.448 23.8941Z" fill="#0F0B0B"/>
<path d="M119.441 16.7463C119.527 15.6855 119.82 14.9083 120.319 14.4115C120.82 13.9159 121.439 13.6681 122.179 13.6681C122.987 13.6681 123.628 13.9463 124.104 14.5072C124.584 15.0648 124.833 15.8116 124.853 16.7463H119.441ZM128.325 11.4029C126.828 9.88113 124.703 9.11914 121.955 9.11914C119.066 9.11914 116.843 9.99413 115.285 11.7441C113.728 13.4941 112.949 16.0051 112.949 19.2768C112.949 22.4453 113.791 24.8888 115.471 26.604C117.151 28.3192 119.512 29.1779 122.551 29.1779C124.011 29.1779 125.267 29.0747 126.32 28.8692C127.367 28.666 128.379 28.2985 129.362 27.7681L128.394 23.4018C127.68 23.704 127.001 23.9366 126.359 24.0899C125.432 24.3127 124.415 24.4246 123.308 24.4246C122.093 24.4246 121.135 24.117 120.432 23.5018C119.73 22.8855 119.356 22.0355 119.313 20.9529H130.572V17.9779C130.572 15.1159 129.823 12.9235 128.325 11.4029Z" fill="#0F0B0B"/>
<path d="M31.7675 16.7463C31.8535 15.6855 32.146 14.9083 32.645 14.4115C33.1452 13.9159 33.7651 13.6681 34.5064 13.6681C35.3117 13.6681 35.9534 13.9463 36.4305 14.5072C36.9097 15.0648 37.1582 15.8116 37.1803 16.7463H31.7675ZM40.652 11.4029C39.1536 9.88113 37.0302 9.11914 34.281 9.11914C31.391 9.11914 29.1691 9.99413 27.6119 11.7441C26.0549 13.4941 25.2748 16.0051 25.2748 19.2768C25.2748 22.4453 26.1158 24.8888 27.7977 26.604C29.4775 28.3192 31.8377 29.1779 34.8775 29.1779C36.3371 29.1779 37.5933 29.0747 38.646 28.8692C39.6925 28.666 40.7055 28.2985 41.6891 27.7681L40.7202 23.4018C40.0061 23.704 39.3266 23.9366 38.6859 24.0899C37.7569 24.3127 36.7408 24.4246 35.6334 24.4246C34.4203 24.4246 33.461 24.117 32.7585 23.5018C32.0549 22.8855 31.6816 22.0355 31.6387 20.9529H42.898V17.9779C42.898 15.1159 42.1493 12.9235 40.652 11.4029Z" fill="#0F0B0B"/>
</svg>
