<svg width="76" height="11" viewBox="0 0 76 11" fill="none" xmlns="http://www.w3.org/2000/svg">
<path d="M5.9997 9.21524L3.09127 10.8969C2.96278 10.9753 2.82845 11.009 2.68829 10.9977C2.54812 10.9865 2.42548 10.9417 2.32035 10.8632C2.21523 10.7847 2.13347 10.6868 2.07506 10.5693C2.01666 10.4518 2.00498 10.3199 2.04002 10.1738L2.81093 6.99551L0.235391 4.85986C0.118587 4.75897 0.0457004 4.64394 0.0167328 4.51479C-0.0122347 4.38565 -0.00359123 4.25964 0.0426634 4.13677C0.0889181 4.0139 0.159001 3.913 0.252912 3.83408C0.346823 3.75515 0.475308 3.70471 0.638367 3.68273L4.03738 3.39686L5.35144 0.403587C5.40984 0.269058 5.50048 0.168161 5.62336 0.100897C5.74624 0.0336322 5.87168 0 5.9997 0C6.12772 0 6.25317 0.0336322 6.37605 0.100897C6.49892 0.168161 6.58956 0.269058 6.64797 0.403587L7.96202 3.39686L11.361 3.68273C11.5246 3.70515 11.653 3.7556 11.7465 3.83408C11.8399 3.91255 11.91 4.01345 11.9567 4.13677C12.0035 4.26009 12.0123 4.38632 11.9834 4.51547C11.9544 4.64462 11.8813 4.75941 11.764 4.85986L9.18847 6.99551L9.95938 10.1738C9.99442 10.3195 9.98274 10.4513 9.92434 10.5693C9.86594 10.6872 9.78417 10.7852 9.67905 10.8632C9.57392 10.9412 9.45128 10.9861 9.31111 10.9977C9.17095 11.0094 9.03662 10.9758 8.90814 10.8969L5.9997 9.21524Z" fill="#FDB538"/>
<path d="M21.9997 9.21524L19.0913 10.8969C18.9628 10.9753 18.8285 11.009 18.6883 10.9977C18.5481 10.9865 18.4255 10.9417 18.3204 10.8632C18.2152 10.7847 18.1335 10.6868 18.0751 10.5693C18.0167 10.4518 18.005 10.3199 18.04 10.1738L18.8109 6.99551L16.2354 4.85986C16.1186 4.75897 16.0457 4.64394 16.0167 4.51479C15.9878 4.38565 15.9964 4.25964 16.0427 4.13677C16.0889 4.0139 16.159 3.913 16.2529 3.83408C16.3468 3.75515 16.4753 3.70471 16.6384 3.68273L20.0374 3.39686L21.3514 0.403587C21.4098 0.269058 21.5005 0.168161 21.6234 0.100897C21.7462 0.0336322 21.8717 0 21.9997 0C22.1277 0 22.2532 0.0336322 22.376 0.100897C22.4989 0.168161 22.5896 0.269058 22.648 0.403587L23.962 3.39686L27.361 3.68273C27.5246 3.70515 27.653 3.7556 27.7465 3.83408C27.8399 3.91255 27.91 4.01345 27.9567 4.13677C28.0035 4.26009 28.0123 4.38632 27.9834 4.51547C27.9544 4.64462 27.8813 4.75941 27.764 4.85986L25.1885 6.99551L25.9594 10.1738C25.9944 10.3195 25.9827 10.4513 25.9243 10.5693C25.8659 10.6872 25.7842 10.7852 25.679 10.8632C25.5739 10.9412 25.4513 10.9861 25.3111 10.9977C25.1709 11.0094 25.0366 10.9758 24.9081 10.8969L21.9997 9.21524Z" fill="#FDB538"/>
<path d="M37.9997 9.21524L35.0913 10.8969C34.9628 10.9753 34.8285 11.009 34.6883 10.9977C34.5481 10.9865 34.4255 10.9417 34.3204 10.8632C34.2152 10.7847 34.1335 10.6868 34.0751 10.5693C34.0167 10.4518 34.005 10.3199 34.04 10.1738L34.8109 6.99551L32.2354 4.85986C32.1186 4.75897 32.0457 4.64394 32.0167 4.51479C31.9878 4.38565 31.9964 4.25964 32.0427 4.13677C32.0889 4.0139 32.159 3.913 32.2529 3.83408C32.3468 3.75515 32.4753 3.70471 32.6384 3.68273L36.0374 3.39686L37.3514 0.403587C37.4098 0.269058 37.5005 0.168161 37.6234 0.100897C37.7462 0.0336322 37.8717 0 37.9997 0C38.1277 0 38.2532 0.0336322 38.376 0.100897C38.4989 0.168161 38.5896 0.269058 38.648 0.403587L39.962 3.39686L43.361 3.68273C43.5246 3.70515 43.653 3.7556 43.7465 3.83408C43.8399 3.91255 43.91 4.01345 43.9567 4.13677C44.0035 4.26009 44.0123 4.38632 43.9834 4.51547C43.9544 4.64462 43.8813 4.75941 43.764 4.85986L41.1885 6.99551L41.9594 10.1738C41.9944 10.3195 41.9827 10.4513 41.9243 10.5693C41.8659 10.6872 41.7842 10.7852 41.679 10.8632C41.5739 10.9412 41.4513 10.9861 41.3111 10.9977C41.1709 11.0094 41.0366 10.9758 40.9081 10.8969L37.9997 9.21524Z" fill="#FDB538"/>
<path d="M53.9997 9.21524L51.0913 10.8969C50.9628 10.9753 50.8285 11.009 50.6883 10.9977C50.5481 10.9865 50.4255 10.9417 50.3204 10.8632C50.2152 10.7847 50.1335 10.6868 50.0751 10.5693C50.0167 10.4518 50.005 10.3199 50.04 10.1738L50.8109 6.99551L48.2354 4.85986C48.1186 4.75897 48.0457 4.64394 48.0167 4.51479C47.9878 4.38565 47.9964 4.25964 48.0427 4.13677C48.0889 4.0139 48.159 3.913 48.2529 3.83408C48.3468 3.75515 48.4753 3.70471 48.6384 3.68273L52.0374 3.39686L53.3514 0.403587C53.4098 0.269058 53.5005 0.168161 53.6234 0.100897C53.7462 0.0336322 53.8717 0 53.9997 0C54.1277 0 54.2532 0.0336322 54.376 0.100897C54.4989 0.168161 54.5896 0.269058 54.648 0.403587L55.962 3.39686L59.361 3.68273C59.5246 3.70515 59.653 3.7556 59.7465 3.83408C59.8399 3.91255 59.91 4.01345 59.9567 4.13677C60.0035 4.26009 60.0123 4.38632 59.9834 4.51547C59.9544 4.64462 59.8813 4.75941 59.764 4.85986L57.1885 6.99551L57.9594 10.1738C57.9944 10.3195 57.9827 10.4513 57.9243 10.5693C57.8659 10.6872 57.7842 10.7852 57.679 10.8632C57.5739 10.9412 57.4513 10.9861 57.3111 10.9977C57.1709 11.0094 57.0366 10.9758 56.9081 10.8969L53.9997 9.21524Z" fill="#FDB538"/>
<path d="M69.9997 9.21524L67.0913 10.8969C66.9628 10.9753 66.8285 11.009 66.6883 10.9977C66.5481 10.9865 66.4255 10.9417 66.3204 10.8632C66.2152 10.7847 66.1335 10.6868 66.0751 10.5693C66.0167 10.4518 66.005 10.3199 66.04 10.1738L66.8109 6.99551L64.2354 4.85986C64.1186 4.75897 64.0457 4.64394 64.0167 4.51479C63.9878 4.38565 63.9964 4.25964 64.0427 4.13677C64.0889 4.0139 64.159 3.913 64.2529 3.83408C64.3468 3.75515 64.4753 3.70471 64.6384 3.68273L68.0374 3.39686L69.3514 0.403587C69.4098 0.269058 69.5005 0.168161 69.6234 0.100897C69.7462 0.0336322 69.8717 0 69.9997 0C70.1277 0 70.2532 0.0336322 70.376 0.100897C70.4989 0.168161 70.5896 0.269058 70.648 0.403587L71.962 3.39686L75.361 3.68273C75.5246 3.70515 75.653 3.7556 75.7465 3.83408C75.8399 3.91255 75.91 4.01345 75.9567 4.13677C76.0035 4.26009 76.0123 4.38632 75.9834 4.51547C75.9544 4.64462 75.8813 4.75941 75.764 4.85986L73.1885 6.99551L73.9594 10.1738C73.9944 10.3195 73.9827 10.4513 73.9243 10.5693C73.8659 10.6872 73.7842 10.7852 73.679 10.8632C73.5739 10.9412 73.4513 10.9861 73.3111 10.9977C73.1709 11.0094 73.0366 10.9758 72.9081 10.8969L69.9997 9.21524Z" fill="#FDB538"/>
</svg>
